<?xml version="1.0" encoding="UTF-8"?>
<svg width="591px" height="411px" viewBox="0 0 591 411" version="1.1" xmlns="http://www.w3.org/2000/svg" xmlns:xlink="http://www.w3.org/1999/xlink">
    <title>Traveling_Flatline</title>
    <g id="Page-1" stroke="none" stroke-width="1" fill="none" fill-rule="evenodd">
        <g id="Traveling_Flatline" fill-rule="nonzero">
            <path d="M589.73,317.4867 L1.1315,317.4867 C0.575465841,317.4759 0.127299815,317.027734 0.1165,316.4717 L0.1165,287.26 C0.1165,286.699431 0.570930979,286.245 1.1315,286.245 L589.73,286.245 C590.290569,286.245 590.745,286.699431 590.745,287.26 L590.745,316.4717 C590.7342,317.027734 590.286034,317.4759 589.73,317.4867 Z M2.248,315.4567 L588.715,315.4567 L588.715,288.275 L2.1465,288.275 L2.248,315.4567 Z" id="Shape" fill="#D1D3D4"></path>
            <path d="M589.73,288.275 L1.1315,288.275 C0.575465841,288.2642 0.127299815,287.816034 0.1165,287.26 L0.1165,1.1721 C0.1165,0.611530979 0.570930979,0.1571 1.1315,0.1571 L589.73,0.1571 C590.290569,0.1571 590.745,0.611530979 590.745,1.1721 L590.745,287.26 C590.7342,287.816034 590.286034,288.2642 589.73,288.275 Z M2.248,286.245 L588.715,286.245 L588.715,2.1871 L2.1465,2.1871 L2.248,286.245 Z" id="Shape" fill="#D1D3D4"></path>
            <path d="M186.3081,288.275 C185.747531,288.275 185.2931,287.820569 185.2931,287.26 L185.2931,1.1721 C185.2931,0.611530979 185.747531,0.1571 186.3081,0.1571 C186.868669,0.1571 187.3231,0.611530979 187.3231,1.1721 L187.3231,287.26 C187.3123,287.816034 186.864134,288.2642 186.3081,288.275 Z" id="Path" fill="#D1D3D4"></path>
            <path d="M404.4519,288.275 C403.895866,288.2642 403.4477,287.816034 403.4369,287.26 L403.4369,1.1721 C403.4369,0.611530979 403.891331,0.1571 404.4519,0.1571 C405.012469,0.1571 405.4669,0.611530979 405.4669,1.1721 L405.4669,287.26 C405.4669,287.529195 405.359963,287.787364 405.169613,287.977713 C404.979264,288.168063 404.721095,288.275 404.4519,288.275 Z" id="Path" fill="#D1D3D4"></path>
            <path d="M589.73,145.16 L1.1315,145.16 C0.570930979,145.16 0.1165,144.705569 0.1165,144.145 C0.127299815,143.588966 0.575465841,143.1408 1.1315,143.13 L589.73,143.13 C590.286034,143.1408 590.7342,143.588966 590.745,144.145 C590.745,144.705569 590.290569,145.16 589.73,145.16 Z" id="Path" fill="#D1D3D4"></path>
            <path d="M288.3562,65.99 C294.660056,65.5365523 300.996261,65.9325651 307.1946,67.1674 C317.0198,69.3192 326.6014,75.0844 330.8035,84.2397 C333.6252,90.3297 333.7673,97.4753 333.8485,104.2758 L334.153,127.7832 L334.153,135.3145 C334.153,141.0391 334.2951,146.7637 334.2748,152.4883 C334.389618,158.433954 333.920468,164.376519 332.8741,170.2305 C330.8441,179.6497 325.7894,188.9268 317.2228,193.271 C311.492471,195.829504 305.204366,196.884508 298.9528,196.3363 C285.481916,195.95914 272.428769,191.577467 261.4587,183.7503 C250.487861,175.784062 243.208992,163.716078 241.2805,150.2959 C240.5091,143.8608 242.5188,136.7558 242.7421,130.138 C242.917049,122.592101 243.520253,115.062219 244.5488,107.5847 C246.457,94.4912 250.111,77.4189 262.6564,70.2936 C266.9803,67.8373 272.1162,67.3298 277.0491,66.8629 C280.8452,66.4772 284.6007,66.1321 288.3562,65.99 Z" id="Path" fill="#231F20"></path>
            <path d="M301.876,197.3716 C300.9422,197.3716 299.9678,197.3716 298.9731,197.3716 C285.267805,197.023377 271.98709,192.544585 260.87,184.5217 C249.6563,176.411121 242.230956,164.081971 240.3061,150.3771 C239.99797,146.204828 240.216218,142.010362 240.9557,137.8926 C241.3008,135.2942 241.6662,132.5943 241.7474,130.0568 C241.913773,122.470014 242.517005,114.899109 243.5541,107.3817 C245.5841,93.4559 249.6441,76.546 262.1895,69.3801 C266.7773,66.7817 272.1974,66.2742 276.9882,65.8276 C280.4595,65.5028 284.3977,65.1374 288.2547,64.9344 L288.2547,64.9344 C294.653799,64.4814439 301.084728,64.8842303 307.3773,66.1321 C318.6641,68.6087 327.6773,75.2062 331.7373,83.7728 C334.7011,90.2688 334.8026,97.6783 334.8838,104.2149 L335.2695,135.2536 C335.2695,140.9985 335.4116,146.784 335.371,152.468 C335.483377,158.475021 335.007441,164.478617 333.95,170.3929 C331.6967,181.4158 325.83,190.0636 317.71,194.1236 C312.767773,196.457187 307.337819,197.571024 301.876,197.3716 L301.876,197.3716 Z M288.3968,66.9644 C284.6007,67.1471 280.6625,67.5125 277.2115,67.8373 C272.6237,68.2636 267.4269,68.7508 263.2248,71.1259 C251.3493,77.8655 247.5735,94.207 245.6044,107.6659 C244.575589,115.109374 243.972375,122.605493 243.7977,130.1177 C243.671442,132.836867 243.400392,135.547376 242.9857,138.2377 C242.291098,142.189703 242.073007,146.210754 242.3361,150.2147 C244.200857,163.374176 251.347974,175.205404 262.1286,182.9789 C272.921538,190.721988 285.795396,195.036852 299.0746,195.3619 C306.5856,195.6867 312.2493,194.7529 316.8371,192.4184 C324.3075,188.6223 329.8088,180.482 331.9606,170.0884 C332.987626,164.300497 333.449931,158.426507 333.341,152.5492 C333.341,146.8855 333.341,141.1203 333.341,135.5378 L332.9553,104.3367 C332.9553,98.0031 332.7726,90.8169 329.9712,84.7269 C326.3172,76.7287 317.7912,70.5169 307.0728,68.223 C300.960814,67.0090905 294.713689,66.6199253 288.4983,67.0659 L288.3968,66.9644 Z" id="Shape" fill="#231F20"></path>
            <path d="M210.8102,101.8195 L179.9136,123.3781 L155.31,76.343 C155.31,76.343 156.8528,56.8347 153.7672,54.6829 C150.6816,52.5311 149.1388,61.5037 149.1388,61.5037 C149.1388,61.5037 142.3383,42.6044 140.1865,43.3961 C138.0347,44.1878 130.0365,49.1207 130.0365,54.0536 C130.0365,58.9865 157.8272,149.8493 165.8457,153.5236 C173.8642,157.1979 236.0837,120.4549 236.0837,120.4549" id="Path" fill="#FFFFFF"></path>
            <path d="M167.0434,154.7822 C166.439855,154.80576 165.838109,154.70201 165.2773,154.4777 C161.5218,152.7319 154.3153,135.9438 143.8202,104.5803 C136.4107,82.433 128.92,56.9159 128.92,54.0536 C128.92,48.3899 137.5678,43.2337 139.7805,42.442 C140.149778,42.2828266 140.568322,42.2828266 140.9376,42.442 C143.1097,43.457 146.784,52.4702 148.8749,57.9918 C149.4839,56.1039 150.438,53.9318 151.859,53.4446 C152.673704,53.1110034 153.605013,53.2429388 154.295,53.7897 C157.5227,56.043 156.6701,71.0447 156.325,76.1197 L180.3602,121.8759 L210.323,100.9669 C210.781877,100.682102 211.383412,100.806512 211.69167,101.24997 C211.999927,101.693429 211.906942,102.300616 211.4801,102.6315 L180.482,124.2104 C180.245711,124.375135 179.951473,124.433983 179.67,124.3728 C179.384611,124.294504 179.143002,124.104145 179.0001,123.845 L154.3153,76.8099 C154.213982,76.6461919 154.171053,76.4530116 154.1935,76.2618 C154.9243,67.1674 154.701,56.6317 153.077,55.4949 C152.7928,55.3122 152.671,55.3528 152.6101,55.3731 C151.5545,55.8197 150.438,59.3113 150.032,61.6864 C149.950943,62.1385949 149.576266,62.4799671 149.1185,62.5187 C148.658023,62.5699368 148.225145,62.2898396 148.0832,61.8488 C145.3427,54.2566 141.6278,45.6088 140.1662,44.4517 C137.8926,45.4058 130.9094,49.9124 130.9094,54.0536 C130.9094,59.7376 159.1873,149.4636 166.1299,152.6304 C171.6515,155.1882 211.5613,133.7108 235.4341,119.6023 C235.915187,119.328154 236.527222,119.490173 236.80966,119.96644 C237.092097,120.442706 236.940703,121.057456 236.4694,121.3481 C230.42,124.86 179.5482,154.7822 167.0434,154.7822 Z" id="Path" fill="#231F20"></path>
            <rect id="Rectangle" fill="#231F20" x="432.3644" y="396.3319" width="9.8861" height="12.6672" rx="3.9179"></rect>
            <path d="M438.3123,409.9938 L436.2823,409.9938 C434.970446,409.983103 433.716888,409.450284 432.798809,408.513157 C431.880729,407.57603 431.37376,406.311798 431.39,405 L431.39,400.1889 C431.39,397.464535 433.598535,395.256 436.3229,395.256 L438.3529,395.256 C439.661186,395.256 440.915889,395.775715 441.840987,396.700813 C442.766085,397.625911 443.2858,398.880614 443.2858,400.1889 L443.2858,405 C443.302216,406.325875 442.784158,407.602531 441.848462,408.542046 C440.912766,409.481561 439.638231,410.004815 438.3123,409.9938 L438.3123,409.9938 Z M436.2823,397.3469 C434.679073,397.3469 433.3794,398.646573 433.3794,400.2498 L433.3794,405 C433.3794,406.603227 434.679073,407.9029 436.2823,407.9029 L438.3123,407.9029 C439.082197,407.9029 439.820561,407.59706 440.36496,407.05266 C440.90936,406.508261 441.2152,405.769897 441.2152,405 L441.2152,400.1889 C441.2152,398.585673 439.915527,397.286 438.3123,397.286 L436.2823,397.3469 Z" id="Shape" fill="#231F20"></path>
            <rect id="Rectangle" fill="#231F20" x="388.6788" y="396.3319" width="9.8861" height="12.6672" rx="3.9179"></rect>
            <path d="M394.6267,409.9938 L392.5967,409.9938 C389.872335,409.9938 387.6638,407.785265 387.6638,405.0609 L387.6638,400.2498 C387.6638,397.525435 389.872335,395.3169 392.5967,395.3169 L394.6267,395.3169 C397.354369,395.3169 399.568721,397.522154 399.5799,400.2498 L399.5799,405 C399.590726,406.320691 399.073655,407.591012 398.143574,408.528717 C397.213493,409.466421 395.947435,409.9938 394.6267,409.9938 Z M392.5967,397.3469 C390.993473,397.3469 389.6938,398.646573 389.6938,400.2498 L389.6938,405 C389.6938,406.603227 390.993473,407.9029 392.5967,407.9029 L394.6267,407.9029 C396.233244,407.9029 397.538743,406.606506 397.5499,405 L397.5499,400.1889 C397.538743,398.582394 396.233244,397.286 394.6267,397.286 L392.5967,397.3469 Z" id="Shape" fill="#231F20"></path>
            <polygon id="Path" fill="#FFFFFF" points="351.6313 287.0164 383.7459 268.787 456.3996 268.787 477.5928 371.6065 451.3449 395.0733"></polygon>
            <path d="M451.3449,396.088576 C451.064919,396.095102 450.796668,395.975879 450.6141,395.7635 L350.8802,287.7066 C350.66521,287.478956 350.567321,287.164828 350.614932,286.855351 C350.662544,286.545875 350.850327,286.275696 351.1238,286.1232 L383.2384,267.8532 C383.386496,267.766147 383.553926,267.717313 383.7256,267.7111 L456.3996,267.7111 C456.881998,267.7111 457.29782,268.050449 457.3943,268.5231 L478.5875,371.3426 C478.668609,371.698525 478.552339,372.07059 478.283,372.317 L452.0351,395.7838 C451.848304,395.96376 451.603746,396.071654 451.3449,396.088576 Z M353.235,287.26 L451.4261,393.6523 L476.4966,371.3223 L455.5673,269.8223 L384.0098,269.8223 L353.235,287.26 Z" id="Shape" fill="#231F20"></path>
            <polygon id="Path" fill="#FFFFFF" points="451.3449 395.0733 373.5553 395.0733 351.6313 287.0164 429.4412 287.0164"></polygon>
            <path d="M451.3449,396.088445 L373.5553,396.088445 C373.070039,396.096544 372.649672,395.753387 372.5606,395.2763 L350.6366,287.26 C350.580199,286.95987 350.653999,286.649911 350.8396,286.4074 C351.035073,286.172676 351.325862,286.038466 351.6313,286.041855 L429.36,286.041855 C429.845261,286.033756 430.265628,286.376913 430.3547,286.854 L452.3396,394.85 C452.407532,395.150301 452.332572,395.465133 452.1366,395.7026 C451.949167,395.949891 451.655159,396.093125 451.3449,396.088445 L451.3449,396.088445 Z M374.3876,394.0583 L450.1066,394.0583 L428.6089,288.0314 L352.8696,288.0314 L374.3876,394.0583 Z" id="Shape" fill="#231F20"></path>
            <polygon id="Path" fill="#231F20" points="383.7459 392.1501 385.5932 398.3213 440.5453 398.3213 439.4694 392.1501"></polygon>
            <path d="M440.5453,399.3363 L385.5932,399.3363 C385.142089,399.3363 384.745111,399.038567 384.6188,398.6055 L382.7715,392.5155 C382.672944,392.212202 382.725789,391.880039 382.9136,391.6223 C383.107335,391.369183 383.406865,391.219417 383.7256,391.2163 L439.51,391.2163 C440.00172,391.209709 440.424456,391.563427 440.5047,392.0486 L441.5806,398.1386 C441.64283,398.43576 441.559918,398.744797 441.3573,398.9709 C441.159305,399.21381 440.858415,399.349211 440.5453,399.3363 L440.5453,399.3363 Z M386.3443,397.3063 L439.3476,397.3063 L438.6168,393.2463 L385.106,393.2463 L386.3443,397.3063 Z" id="Shape" fill="#231F20"></path>
            <path d="M407.5172,291.970088 L368.8051,291.970088 C368.328858,291.971742 367.91517,291.64248 367.8104,291.1779 L350.3321,211.7237 C350.258553,211.426528 350.325943,211.112043 350.5148,210.8711 C350.70814,210.631107 350.998347,210.489724 351.3065,210.485255 L391.0336,210.485255 C391.518861,210.477156 391.939228,210.820313 392.0283,211.2974 L408.5119,290.7516 C408.571177,291.054976 408.488977,291.368829 408.2886,291.6042 C408.105436,291.84327 407.818213,291.979323 407.5172,291.970088 L407.5172,291.970088 Z M369.6171,289.9396 L406.2586,289.9396 L390.2216,212.5154 L352.5854,212.5154 L369.6171,289.9396 Z" id="Shape" fill="#231F20"></path>
            <path d="M429.36,288.0314 C429.012919,288.038761 428.688134,287.860903 428.5074,287.5645 C428.354995,287.342379 428.299196,287.067942 428.352761,286.803942 C428.406326,286.539942 428.564675,286.308956 428.7916,286.1638 L452.4614,270.7155 C452.938695,270.41165 453.571518,270.547255 453.8824,271.02 C454.184273,271.491028 454.048081,272.117509 453.5779,272.4207 L429.9081,287.869 C429.742215,287.968936 429.55355,288.024837 429.36,288.0314 Z" id="Path" fill="#231F20"></path>
            <path d="M395.9868,212.5154 L346.5766,212.5154 C346.016031,212.5154 345.5616,212.060969 345.5616,211.5004 C345.5724,210.944366 346.020566,210.4962 346.5766,210.4854 L395.9868,210.4854 C396.542834,210.4962 396.991,210.944366 397.0018,211.5004 C397.0018,212.060969 396.547369,212.5154 395.9868,212.5154 Z" id="Path" fill="#231F20"></path>
            <polygon id="Path" fill="#FFFFFF" points="229.3238 366.8969 221.7113 385.0451 204.2939 377.4123 212.2109 357.3965"></polygon>
            <path d="M212.15,357.3965 L229.2629,366.8969 L221.6504,385.0451 L204.233,377.392 L212.15,357.3965 M212.15,355.3665 C211.921123,355.365708 211.69405,355.406994 211.4801,355.4883 C210.92606,355.680022 210.481964,356.101914 210.2621,356.6454 L202.406,376.58 C202.009415,377.594513 202.484215,378.741202 203.4819,379.1784 L220.8993,386.8315 C221.157474,386.935786 221.432875,386.990866 221.7113,386.994106 C221.968688,386.99768 222.224181,386.949344 222.4624,386.8518 C222.966094,386.650271 223.368164,386.255511 223.5789,385.7556 L231.1914,367.6074 C231.589387,366.651772 231.204552,365.549744 230.2982,365.0496 L213.2056,355.5492 C212.902205,355.377254 212.55963,355.286367 212.2109,355.2853 L212.15,355.3665 Z" id="Shape" fill="#231F20"></path>
            <path d="M223.721,384.2737 L214.3018,408.2074 C214.3018,408.2074 164.6683,390.3637 161.5218,387.1563 C158.3753,383.9489 169.2155,380.0513 171.3064,380.6806 C173.3973,381.3099 181.4564,383.4414 184.3796,383.076 C187.3028,382.7106 203.0759,374.7327 203.0759,374.7327 L223.721,384.2737 Z" id="Path" fill="#231F20"></path>
            <path d="M214.3018,409.2224 C214.187577,409.241707 214.070923,409.241707 213.9567,409.2224 C208.8614,407.3751 164.0187,391.2163 160.7504,387.9277 C159.768163,387.05481 159.577773,385.592267 160.3038,384.497 C162.0293,381.6144 169.3576,379.1175 171.5297,379.7671 C173.7018,380.4167 181.6797,382.467 184.1969,382.1422 C186.2269,381.8783 196.3769,377.0672 202.5684,373.9004 C202.844508,373.768895 203.165192,373.768895 203.4413,373.9004 L224.1473,383.4414 C224.631572,383.663085 224.8553,384.22688 224.6548,384.7203 L215.2356,408.654 C215.069942,409.016674 214.700043,409.24183 214.3018,409.2224 Z M170.5959,381.6144 C168.8704,381.6144 163.2676,383.4211 162.0293,385.4714 C161.912411,385.613341 161.861152,385.798171 161.888239,385.980041 C161.915326,386.161911 162.018221,386.323782 162.1714,386.4255 C164.3841,388.6382 193.8597,399.7626 213.7131,406.9285 L222.4218,384.8015 L203.0353,375.8695 C200.1324,377.3311 187.2419,383.7256 184.4608,383.9895 C181.294,384.3752 172.8695,382.1219 170.941,381.5535 C170.822991,381.549686 170.705476,381.570424 170.5959,381.6144 L170.5959,381.6144 Z" id="Shape" fill="#231F20"></path>
            <polygon id="Path" fill="#FFFFFF" points="313.7312 318.5829 329.5246 330.3163 317.9333 345.3992 300.4144 332.9147"></polygon>
            <path d="M313.65,318.5829 L329.4434,330.3163 L317.8521,345.3992 L300.3332,332.9147 L313.65,318.5829 M313.65,316.552853 C313.080297,316.549045 312.535194,316.784765 312.1478,317.2025 L298.8513,331.5343 C298.449136,331.958562 298.249391,332.535602 298.3032,333.1177 C298.361124,333.705771 298.672416,334.239414 299.1558,334.5793 L316.6747,347.0435 C317.017385,347.291618 317.42903,347.426467 317.8521,347.429258 C318.487506,347.434014 319.088509,347.141025 319.4761,346.6375 L331.0471,331.5546 C331.38191,331.122467 331.528284,330.573565 331.4531,330.0321 C331.377661,329.498061 331.092804,329.015996 330.6614,328.6923 L314.8477,316.9589 C314.501881,316.69949 314.082279,316.557252 313.65,316.552853 Z" id="Shape" fill="#231F20"></path>
            <path d="M329.2607,328.1848 L350.19,343.0444 C350.19,343.0444 320.9986,386.9736 317.1213,389.3081 C313.244,391.6426 312.0666,380.1528 313.1628,378.2852 C314.259,376.4176 318.2987,369.0284 318.6235,366.1052 C318.9483,363.182 315.0101,345.9473 315.0101,345.9473 L329.2607,328.1848 Z" id="Path" fill="#231F20"></path>
            <path d="M316.1469,390.6479 C315.42318,390.626926 314.737168,390.320409 314.2387,389.7953 C311.8433,387.4202 311.1937,379.6453 312.3508,377.7574 C313.5079,375.8695 317.3649,368.6021 317.6694,366.024 C317.8927,363.994 315.6394,353.0929 314.056,346.2112 C313.999599,345.91107 314.073399,345.601111 314.259,345.3586 L328.469,327.5555 C328.802319,327.132174 329.408321,327.043057 329.8494,327.3525 L350.8193,342.2324 C351.272896,342.541019 351.390968,343.158627 351.0832,343.6128 C348.16,348.16 321.6482,387.7856 317.71,390.181 C317.243361,390.480792 316.701516,390.642642 316.1469,390.6479 L316.1469,390.6479 Z M316.1469,346.2518 C316.8574,349.4186 320.0039,363.4662 319.6791,366.2676 C319.3137,369.4141 315.1116,377.0672 314.0763,378.7927 C313.4876,379.7874 313.8327,386.527 315.6597,388.354 C315.78626,388.488107 315.962503,388.564115 316.1469,388.564115 C316.331297,388.564115 316.50754,388.488107 316.6341,388.354 C319.2934,386.73 337.1574,360.7866 348.8502,343.2068 L329.4434,329.4637 L316.1469,346.2518 Z" id="Shape" fill="#231F20"></path>
            <path d="M226.36,168.911 C226.36,168.911 192.6417,258.84 201.4316,265.3969 C210.2215,271.9538 300.9016,345.0744 300.9016,345.0744 L323.1301,316.492 C323.1301,316.492 258.5355,268.0765 256.6882,262.3113 C254.8409,256.5461 272.7252,174.6153 272.7252,174.6153 L226.36,168.911 Z" id="Path" fill="#231F20"></path>
            <path d="M300.8204,346.13 C300.585027,346.13 300.356382,346.051474 300.1708,345.9067 C299.2776,345.1759 209.4095,272.7252 200.7008,266.2495 C191.5658,259.4287 221.8128,177.8633 225.3044,168.5862 C225.473462,168.159691 225.903067,167.895319 226.36,167.9366 L272.7658,173.58 C273.052492,173.614562 273.310891,173.769601 273.4763,174.0063 C273.640033,174.235326 273.699045,174.523009 273.6387,174.798 C266.4525,207.6231 256.2619,257.9265 257.5611,261.9662 C258.8603,266.0059 298.7904,297.004 323.6579,315.6394 C324.099752,315.981919 324.181437,316.61725 323.8406,317.0604 L301.5106,345.6428 C301.348999,345.867229 301.09623,346.008482 300.8204,346.0285 L300.8204,346.13 Z M226.9284,170.0478 C214.0176,204.5578 196.0115,260.2204 201.9391,264.6255 C210.2012,270.7155 291.6448,336.4266 300.6377,343.6737 L321.6279,316.7153 C312.026,309.5088 257.4799,268.3607 255.6326,262.6564 C253.7853,256.9521 268.7464,187.8103 271.426,175.5288 L226.9284,170.0478 Z" id="Shape" fill="#231F20"></path>
            <path d="M300.6783,182.4511 L235.1905,371.2411 C235.1905,371.2411 193.2101,359.3047 196.0927,357.1529 C192.5199,359.8122 239.758,228.999 252.0801,174.2499 L300.6783,182.4511 Z" id="Path" fill="#231F20"></path>
            <path d="M235.1905,372.1952 C235.103591,372.214489 235.013509,372.214489 234.9266,372.1952 C216.9814,367.0999 195.4837,360.4415 194.9559,357.6401 C194.935589,357.491926 194.935589,357.341674 194.9559,357.1935 C194.7732,355.1635 197.2498,347.0435 210.0388,308.4735 C224.2488,265.4781 243.7571,206.5878 251.0854,174.0063 C251.197422,173.477475 251.711268,173.134911 252.2425,173.2349 L300.8407,181.4767 C301.132508,181.525865 301.39028,181.695258 301.5512,181.9436 C301.661811,182.217038 301.661811,182.522762 301.5512,182.7962 L236.0634,371.5862 C235.910735,371.937711 235.573104,372.173268 235.1905,372.1952 L235.1905,372.1952 Z M197.0874,357.2341 C199.5843,359.2641 217.5701,365.1105 234.5612,369.9622 L299.3182,183.2022 L252.8515,175.3258 C245.3405,208.1915 226.0758,266.4119 211.9673,309.0622 C204.1721,332.6102 197.3919,353.0929 196.925,356.5033 C197.076433,356.714603 197.135088,356.978548 197.0874,357.2341 L197.0874,357.2341 Z" id="Shape" fill="#231F20"></path>
            <path d="M316.2078,134.807 L335.1071,116.6994 C324.9571,99.282 321.3437,87.4877 314.3402,83.8337 C305.2864,77.5813 273.2327,81.8037 253.968,82.7781 C247.786238,83.0000271 241.676929,84.1849043 235.8604,86.29 C223.172712,90.8989047 211.465662,97.8542699 201.3504,106.793 L224.7157,135.619 L230.2779,127.1742 C230.2779,127.1742 226.9893,143.6375 219.2753,176.9904 C246.575749,175.425718 273.909791,179.417399 299.6227,188.7238 C299.6227,188.7238 316.1875,140.5519 316.2078,134.807 Z" id="Path" fill="#00379F"></path>
            <path d="M276.8055,139.780619 C276.635247,139.783166 276.467268,139.741171 276.3183,139.6587 C276.076751,139.534104 275.896705,139.316095 275.820015,139.055348 C275.743325,138.794602 275.77667,138.513831 275.9123,138.2783 C276.1153,137.8926 297.0649,99.0587 290.1223,84.1179 C288.5389,80.7075 283.7278,77.7031 278.4295,76.8099 C272.993874,75.7407824 267.385283,77.4805902 263.509,81.4383 C254.036543,90.9052195 248.311103,103.480997 247.3908,116.8415 C246.985365,122.4818 247.604345,128.14891 249.2178,133.5687 C249.348523,134.078712 249.067572,134.604009 248.570796,134.778409 C248.074021,134.952809 247.526367,134.718405 247.3096,134.2386 C247.2081,133.9544 237.4844,105.6765 262.0474,80.0376 C266.380942,75.5935971 272.66195,73.632213 278.7543,74.8205 C284.8443,75.8152 290.0817,79.2053 291.9696,83.2653 C299.3182,99.1399 278.5513,137.6287 277.6581,139.2527 C277.489853,139.569492 277.164076,139.771163 276.8055,139.780619 Z" id="Path" fill="#231F20"></path>
            <path d="M248.69,18.7925 C248.69,18.7925 236.0431,18.9752 242.0113,33.1243 C245.848,42.3202 273.05,43.8427 273.05,43.8427 C273.05,43.8427 272.9282,26.7704 248.69,18.7925 Z" id="Path" fill="#231F20"></path>
            <path d="M273.05,44.8577 L273.05,44.8577 C271.9132,44.8577 245.239,43.1931 241.1587,33.51 C239.1287,28.5365 238.9257,24.5983 240.773,21.7766 C242.677625,19.2818006 245.612983,17.7879799 248.7509,17.7166 L249.0757,17.7166 C273.8011,25.8366 274.12591,43.0104 274.12591,43.7412 C274.127192,44.0200537 274.00895,44.2860986 273.8011,44.472 C273.622331,44.707998 273.345961,44.8499175 273.05,44.8577 Z M248.487,19.8075 C246.109158,19.917831 243.892352,21.0410123 242.397,22.8931 C240.9557,25.1058 241.1384,28.4147 242.9654,32.7386 C245.8074,39.4579 263.8744,42.1578 271.9538,42.7668 C271.4057,38.9707 268.3607,26.405 248.487,19.8075 Z" id="Shape" fill="#231F20"></path>
            <path d="M260.2407,32.8604 C260.568433,32.2926917 260.927626,31.7437364 261.3166,31.2161 C265.6202,25.1261 277.0288,27.1561 283.0173,28.9222 C288.699109,30.3245314 293.922464,33.1704557 298.1814,37.1843 C301.47,40.5338 304.5353,45.9742 303.9263,50.8462 C303.3173,55.7182 300.2317,61.4428 297.8363,65.5434 C296.483776,68.0973043 294.516338,70.2740442 292.1117,71.877 C289.60071,73.1785187 286.819758,73.8737566 283.9917,73.907 C277.913719,74.5183349 271.787397,73.3846132 266.3307,70.6387 C260.477399,67.3629458 256.529011,61.5006452 255.6935,54.8453 C254.932124,47.2247772 256.51877,39.5536277 260.2407,32.8604 Z" id="Path" fill="#FFFFFF"></path>
            <path d="M280.9873,74.9423 C275.675757,75.1456491 270.404142,73.9485095 265.7014,71.471 C260.4843,68.5072 255.0033,62.2142 254.5364,54.8453 C253.815899,47.0200831 255.493942,39.1608934 259.3475,32.3123 C259.688791,31.7242723 260.061497,31.1550482 260.464,30.6071 C265.4172,23.6645 278.0844,26.405 283.3015,27.9072 C289.166564,29.3477197 294.554324,32.2934948 298.9325,36.4535 C302.1399,39.7218 305.6518,45.4667 305.0225,50.968 C303.938719,56.3770096 301.792886,61.5173502 298.7092,66.0915 C296.051998,71.7435985 290.227256,75.2143414 283.9917,74.8611 C282.9158,74.922 281.9414,74.9423 280.9873,74.9423 Z M271.7305,28.2523 C267.8938,28.2523 264.1586,29.1049 262.1692,31.886 C261.8038,32.3935 261.4587,32.9213 261.1339,33.4491 L261.1339,33.4491 C257.512785,39.9360739 255.93495,47.3653396 256.607,54.7641 C257.429401,61.0722293 261.195658,66.6161595 266.757,69.7049 C271.1215,72.2018 276.704,73.2168 283.8293,72.8311 C286.499877,72.8389115 289.135042,72.2200996 291.523,71.0244 C293.766687,69.5072878 295.606292,67.4656044 296.8822,65.0765 C299.815787,60.7802911 301.884316,55.9537242 302.9722,50.8665 C303.5203,46.4005 300.6377,41.224 297.5115,38.0572 C293.390013,34.1602161 288.324737,31.4036986 282.8143,30.059 C279.216964,28.9557327 275.49074,28.3278708 271.7305,28.1914 L271.7305,28.2523 Z" id="Shape" fill="#231F20"></path>
            <path d="M263.3263,73.4401 L261.5602,88.0967 C261.5602,88.0967 265.6202,97.3941 275.1815,95.5671 C280.921926,94.4195481 285.837628,90.7420958 288.5592,85.5592 L289.7569,58.7835 C289.7569,58.7835 282.8955,54.7235 285.6969,39.4985 C277.77158,42.457183 269.196075,43.2284876 260.87,41.7315 C260.87,41.7315 255.7544,58.0933 256.5461,65.5028 C257.3378,72.9123 263.3263,73.4401 263.3263,73.4401 Z" id="Path" fill="#FFFFFF"></path>
            <path d="M272.7252,96.846 C264.3007,96.846 260.5452,88.6042 260.5452,88.523 C260.49596,88.3436177 260.49596,88.1542823 260.5452,87.9749 L262.2098,74.2521 C258.345241,73.1332222 255.6459,69.6462318 255.5311,65.6246 C254.7394,58.073 259.5911,42.0969 259.8956,41.427 C260.059243,40.9207865 260.568294,40.6101795 261.0933,40.6962 C269.187616,42.125392 277.516151,41.3828984 285.23,38.5444 C285.586714,38.3849445 286.002816,38.4399013 286.3059,38.6865 C286.612295,38.9267456 286.754258,39.3210873 286.6713,39.7015 C284.0526,53.9115 290.1832,57.8497 290.2441,57.9715 C290.567929,58.1675588 290.755742,58.5275347 290.7313,58.9053 L289.5539,85.681 C289.574845,85.8155229 289.574845,85.9524771 289.5539,86.087 C286.679335,91.5999214 281.447775,95.5011704 275.3439,96.6836 C274.47731,96.8130869 273.601149,96.8674225 272.7252,96.846 L272.7252,96.846 Z M262.5752,87.9343 C263.2654,89.335 267.0006,96.0543 274.9176,94.5318 C280.248592,93.4350136 284.832558,90.060087 287.463,85.2953 L288.6201,59.291 C287.0367,57.9918 282.5301,53.201 284.3165,41.021 C276.97861,43.4039894 269.182181,44.0229744 261.5602,42.8277 C260.5249,46.2787 256.8912,59.0677 257.5002,65.2998 C258.1092,71.5319 263.1233,72.2627 263.3263,72.283 C263.913673,72.3469136 264.339607,72.8725336 264.2804,73.4604 L262.5752,87.9343 Z" id="Shape" fill="#231F20"></path>
            <path d="M284.215,58.0324 C284.606768,56.7512699 285.395917,55.6279762 286.4683,54.825 C287.510644,54.1325836 288.664234,53.6244546 289.8787,53.3228 C290.524877,53.0751448 291.220681,52.9846902 291.9087,53.0589 C292.377476,53.1621611 292.824226,53.3477342 293.2282,53.607 C294.218487,54.1677345 294.98015,55.0587364 295.38,56.1242 C295.593115,57.0184109 295.593115,57.9501891 295.38,58.8444 C295.212896,59.825433 294.919491,60.7807051 294.5071,61.6864 C293.620525,63.4916672 292.05216,64.870047 290.147992,65.5174642 C288.243824,66.1648813 286.160317,66.0281379 284.3571,65.1374" id="Path" fill="#FFFFFF"></path>
            <path d="M287.7675,66.9644 C286.430474,66.9652817 285.111031,66.6597265 283.9105,66.0712 C283.659754,65.9450896 283.469556,65.7243118 283.381943,65.4576638 C283.29433,65.1910157 283.316517,64.9004541 283.4436,64.6502 C283.713199,64.1482109 284.327427,63.9434684 284.8443,64.1833 C286.397957,64.9501938 288.18936,65.0812721 289.8381,64.5487 C291.468353,63.9772838 292.809453,62.7892445 293.5733,61.2398 C293.955744,60.414313 294.222168,59.5398937 294.365,58.6414 C294.536913,57.9138507 294.536913,57.1562493 294.365,56.4287 C294.034549,55.5772064 293.426634,54.8620127 292.6395,54.3987 C292.352521,54.1996471 292.027817,54.0614752 291.6854,53.9927 C291.161058,53.955291 290.634817,54.0314574 290.1426,54.216 C289.045425,54.4941491 288.002502,54.9538584 287.057,55.5761 C286.158653,56.2369926 285.496747,57.1693541 285.1691,58.2354 C285.006535,58.7959689 284.420319,59.1186149 283.85975,58.9560499 C283.299181,58.7934849 282.976535,58.207269 283.1391,57.6467 C283.592652,56.1385475 284.526444,54.8198337 285.7984,53.8912 C286.937236,53.1188155 288.200855,52.5488136 289.5336,52.2063 C290.324962,51.9167068 291.173809,51.819298 292.0102,51.9221 C292.617849,52.0398539 293.196922,52.2742407 293.7154,52.6123 C294.982234,53.3135272 295.938819,54.4657772 296.395,55.84 C296.658838,56.892856 296.658838,57.994544 296.395,59.0474 C296.232047,60.1306285 295.91057,61.1839798 295.4409,62.1736 C294.43557,64.2289596 292.653246,65.7994507 290.4877,66.5381 C289.610137,66.8269914 288.691368,66.9709775 287.7675,66.9644 L287.7675,66.9644 Z" id="Path" fill="#231F20"></path>
            <path d="M262.9,80.7481 C266.424595,81.3227853 270.024969,80.3374978 272.7658,78.0482 C277.1506,74.2115 276.8258,71.9582 276.8258,71.9582 C276.8258,71.9582 269.9035,75.328 263.7526,73.7852 L262.9,80.7481 Z" id="Path" fill="#231F20"></path>
            <path d="M264.7473,81.9052 C264.025796,81.9144871 263.30511,81.8532967 262.5955,81.7225 C262.074437,81.6200521 261.72042,81.1332787 261.7835,80.606 L262.7173,73.5619 C262.737644,73.2705346 262.896087,73.0064638 263.1436,72.8514 C263.378784,72.6835167 263.67738,72.6312624 263.9556,72.7093 C269.6802,74.1506 276.2777,70.9838 276.3589,70.9635 C276.651688,70.8118169 276.999912,70.8118169 277.2927,70.9635 C277.573516,71.1267783 277.761418,71.4123892 277.8002,71.7349 C277.8002,72.0394 277.9626,74.7393 273.3342,78.779 C270.948737,80.8330622 267.895003,81.9448233 264.7473,81.9052 Z M263.9353,79.8752 C266.876081,80.120625 269.794696,79.1939645 272.0553,77.2971 C273.320942,76.2646064 274.3991,75.0216349 275.2424,73.6228 C271.860944,74.9095724 268.217459,75.3554291 264.6255,74.922 L263.9353,79.8752 Z" id="Shape" fill="#231F20"></path>
            <path d="M268.6246,51.1507 C268.6246,51.1507 263.0421,58.1542 264.118,59.5346 C265.1939,60.915 268.5637,60.3466 268.5637,60.3466" id="Path" fill="#FFFFFF"></path>
            <path d="M266.96,61.4834 C265.590589,61.6077858 264.236771,61.1168407 263.2654,60.1436 C262.2301,58.8241 263.7526,55.5761 267.7923,50.5214 C268.145458,50.0841562 268.786206,50.0159915 269.22345,50.36915 C269.660694,50.7223085 269.728858,51.3630562 269.3757,51.8003 C266.96,54.8656 264.93,58.276 264.93,59.0677 C266.005425,59.5025234 267.18729,59.601602 268.3201,59.3519 C268.682725,59.2902538 269.050691,59.4267483 269.285391,59.7099673 C269.52009,59.9931863 269.585866,60.3801021 269.457941,60.7249673 C269.330016,61.0698325 269.027825,61.3202538 268.6652,61.3819 C268.100265,61.4596292 267.530166,61.4935636 266.96,61.4834 Z" id="Path" fill="#231F20"></path>
            <path d="M267.0615,65.584 C267.0615,65.584 272.4207,67.8373 274.3695,62.5999" id="Path" fill="#FFFFFF"></path>
            <path d="M269.6396,67.0659 C268.621151,67.052354 267.612289,66.8670528 266.6555,66.5178 C266.134171,66.299178 265.888778,65.6993292 266.1074,65.1780001 C266.326022,64.6566709 266.925871,64.4112782 267.4472,64.6299 C268.692349,65.0863766 270.059051,65.0863766 271.3042,64.6299 C272.322637,64.129495 273.092567,63.2349099 273.4357,62.1533 C273.531218,61.7752205 273.834895,61.4852928 274.216991,61.4073821 C274.599088,61.3294714 274.992036,61.477355 275.227957,61.787853 C275.463878,62.098351 275.501053,62.5165563 275.3236,62.8638 C274.798586,64.4704721 273.629445,65.7866745 272.0959,66.4975 C271.323498,66.8496615 270.488185,67.0429572 269.6396,67.0659 L269.6396,67.0659 Z" id="Path" fill="#231F20"></path>
            <ellipse id="Oval" fill="#231F20" transform="translate(277.048937, 51.662326) rotate(-72.940000) translate(-277.048937, -51.662326) " cx="277.048937" cy="51.6623263" rx="1.7255" ry="1.2383"></ellipse>
            <ellipse id="Oval" fill="#231F20" transform="translate(264.129426, 50.660308) rotate(-72.940000) translate(-264.129426, -50.660308) " cx="264.129426" cy="50.660308" rx="1.7255" ry="1.2383"></ellipse>
            <path d="M284.6413,47.2328 L303.8045,51.2928 C303.8045,51.2928 313.9545,26.1817 294.2229,14.9152 C271.8929,2.1871 260.3422,20.2541 260.3422,20.2541 L284.6413,47.2328 Z" id="Path" fill="#FFFFFF"></path>
            <path d="M303.8045,52.3484 L303.5,52.3484 L284.3571,48.2884 C284.13696,48.2458831 283.937093,48.1316733 283.7887,47.9636 L259.4287,21.0255 C259.102986,20.6740555 259.060999,20.1450219 259.3272,19.7466 C259.449,19.5639 271.6899,0.9894 294.6086,14.0829 C302.9925,18.8737 307.3976,26.9328 307.2961,37.3873 C307.276812,42.2926798 306.425676,47.1592584 304.7789,51.78 C304.594904,52.1453194 304.213066,52.3680583 303.8045,52.3484 Z M285.1894,46.2584 L303.1346,50.0748 C304.522196,45.9361509 305.268397,41.6095572 305.3473,37.2452 C305.3473,27.5012 301.4903,20.2947 293.6951,15.8287 C274.674,4.9682 263.9759,17.1076 261.682,20.1729 L285.1894,46.2584 Z" id="Shape" fill="#231F20"></path>
            <path d="M284.6413,47.2328 C284.6413,47.2328 280.8452,26.9328 260.2813,20.2744 L248.69,18.7925 C255.569911,24.2486268 261.27962,31.0353788 265.4781,38.7474 C272.7455,51.577 284.6413,47.2328 284.6413,47.2328 Z" id="Path" fill="#FFFFFF"></path>
            <path d="M279.9317,48.9583 C275.5063,48.9583 269.1118,47.3343 264.5037,39.2752 C260.367513,31.7019596 254.763904,25.0286967 248.0201,19.6451 C247.63065,19.3636143 247.480456,18.8546217 247.6547,18.4068 C247.827794,17.9644181 248.279741,17.6965979 248.7509,17.7572 L260.4843,19.2391 C281.5151,26.1411 285.636,46.8268 285.6766,47.0298 C285.776673,47.5341681 285.491404,48.0355496 285.0067,48.2072 C283.365514,48.7248751 281.652477,48.9784045 279.9317,48.9583 Z M252.1004,20.2744 C257.753959,25.4768806 262.549785,31.5401748 266.3104,38.2399 C272.0553,48.3899 280.5204,47.1719 283.3827,46.502 C282.3271,42.442 277.1709,26.9328 259.9971,21.2691 L252.1004,20.2744 Z" id="Shape" fill="#231F20"></path>
            <path d="M222.1579,278.449816 L221.8534,278.449816 C221.321135,278.275701 221.030447,277.703408 221.2038,277.1709 L238.8039,220.067 C238.969571,219.537026 239.530354,219.238545 240.0625,219.3971 C240.595234,219.571709 240.892196,220.138637 240.7324,220.676 L223.1323,277.7799 C222.97951,278.184965 222.590817,278.452192 222.1579,278.449816 Z" id="Path" fill="#FFFFFF"></path>
            <path d="M256.9927,312.4117 C256.858868,312.440207 256.720532,312.440207 256.5867,312.4117 C256.339879,312.308918 256.144827,312.111101 256.04553,311.862858 C255.946233,311.614615 255.951052,311.336849 256.0589,311.0922 L270.2689,277.11 C270.483878,276.596239 271.072682,276.351658 271.5884,276.5619 C272.093964,276.784976 272.33522,277.365776 272.1365,277.8814 L257.9265,311.8839 C257.741207,312.223369 257.379101,312.428038 256.9927,312.4117 Z" id="Path" fill="#FFFFFF"></path>
            <path d="M310.7268,123.2157 C310.7268,123.2157 340.04,182.0857 353.6207,206.2427 C353.6207,206.2427 356.5033,227.375 369.678,226.2179 C388.4149,224.5533 385.106,212.6372 385.106,212.6372 L374.55,202.3857 L335.1071,116.74" id="Path" fill="#FFFFFF"></path>
            <path d="M368.6224,227.2735 C356.1379,227.2735 352.9914,208.8411 352.6463,206.5675 C339.1671,182.6338 310.0163,124.251 309.8133,123.6623 C309.702899,123.192585 309.93844,122.710073 310.376688,122.508183 C310.814935,122.306294 311.334739,122.440839 311.62,122.83 C311.9245,123.4187 341.0956,182.0451 354.5139,205.8164 C354.572429,205.931472 354.61348,206.054625 354.6357,206.1818 C354.6357,206.3848 357.5589,226.3397 369.5968,225.2841 C376.174,224.6954 380.6197,222.7872 382.8324,219.6204 C384.10177,217.755234 384.590015,215.467039 384.1925,213.2462 L373.8801,203.0962 C373.788936,203.015898 373.713253,202.919575 373.6568,202.812 L334.1733,117.1257 C333.944616,116.615548 334.17152,116.016521 334.6808,115.7859 C334.922533,115.66908 335.201224,115.65494 335.45354,115.746691 C335.705856,115.838442 335.910368,116.028293 336.0206,116.2731 L375.4229,201.7767 L385.8165,211.9267 C385.948454,212.056382 386.046114,212.216824 386.1007,212.3936 C386.744798,215.270263 386.163867,218.28522 384.497,220.7166 C381.9392,224.4112 376.986,226.6036 369.7795,227.2329 L368.6224,227.2735 Z" id="Path" fill="#231F20"></path>
            <path d="M310.7268,161.9684 C310.7268,161.9684 293.8981,142.927 295.5627,117.8159 C297.2273,92.7048 305.7127,79.0632 305.7127,79.0632 L314.3605,81.2353 C314.3605,81.2353 304.9616,95.1814 304.0278,118.4249 C303.2767,136.837 313.6297,152.9349 313.6297,152.9349 L310.7268,161.9684 Z" id="Path" fill="#231F20"></path>
            <path d="M310.7268,162.983438 C310.431727,162.985968 310.150144,162.859996 309.9554,162.6383 C309.793,162.4353 292.8831,142.9879 294.5477,117.7347 C296.2123,92.4815 304.4947,79.1647 304.8398,78.5354 C305.06126,78.1539295 305.507495,77.9638663 305.936,78.0685 L314.5838,80.2 C314.9069,80.2854636 315.170442,80.5188859 315.2943,80.8293 C315.398938,81.1360777 315.353861,81.4741555 315.1725,81.7428 C315.1725,81.8849 305.9157,95.7701 305.0225,118.4249 C304.2917,136.2889 314.3605,152.265 314.462,152.4274 C314.592935,152.696519 314.592935,153.010881 314.462,153.28 L311.62,162.2729 C311.501538,162.614575 311.21935,162.873883 310.8689,162.9631 L310.7268,162.983438 Z M306.1999,80.2 C304.5759,83.1638 298.0799,96.2979 296.5777,117.8565 C295.1973,138.4001 306.6059,155.0258 310.3208,159.8572 L312.5132,153.1176 C310.8689,150.4177 302.3632,135.4769 302.9925,118.364 C303.2784,105.578419 306.626829,93.0479148 312.7568,81.824 L306.1999,80.2 Z" id="Shape" fill="#231F20"></path>
            <path d="M226.2382,147.6163 C226.2382,147.6163 229.1411,113.1063 249.3193,82.1285 L240.8136,83.2856 C240.8136,83.2856 229.202,89.538 224.0052,115.5829 C219.1535,139.9226 226.2382,147.6163 226.2382,147.6163 Z" id="Path" fill="#231F20"></path>
            <path d="M226.2382,148.6313 C225.952831,148.635802 225.679276,148.517508 225.4871,148.3065 C225.1826,147.9817 218.1182,139.9632 223.0105,115.3799 C228.2479,89.1726 239.8392,82.6563 240.3467,82.3924 L240.6715,82.3924 L249.1772,81.2353 C249.570817,81.1876203 249.957094,81.3689338 250.1719,81.7022 C250.38259,82.0298893 250.38259,82.4504107 250.1719,82.7781 C230.3794,113.2281 227.2938,147.4742 227.2532,147.7381 C227.228781,148.133899 226.962084,148.473331 226.5833,148.5907 C226.471924,148.626189 226.354771,148.639971 226.2382,148.6313 L226.2382,148.6313 Z M241.1587,84.26 C239.8392,85.0923 229.7095,92.1567 224.9187,115.7859 C221.6707,132.0259 223.8428,140.6534 225.5074,144.4901 C226.7254,135.5175 231.5974,108.417 247.2081,83.4277 L241.1587,84.26 Z" id="Shape" fill="#231F20"></path>
            <path d="M313.4673,187.181005 C312.936969,187.1827 312.494724,186.775834 312.4523,186.2472 C311.548638,174.182783 314.383905,162.132898 320.5723,151.7372 C320.743974,151.394721 321.093851,151.17808 321.476947,151.177044 C321.860043,151.176016 322.211083,151.390769 322.3846,151.732317 C322.558117,152.073866 322.524547,152.484013 322.2978,152.7928 C316.323124,162.82094 313.573617,174.442566 314.4214,186.0848 C314.443744,186.352096 314.35719,186.617088 314.181373,186.819659 C314.005557,187.02223 313.755381,187.14521 313.4876,187.1607 L313.4673,187.181005 Z" id="Path" fill="#FFFFFF"></path>
            <path d="M239.758,212.5154 C239.496074,212.520858 239.242984,212.420613 239.055835,212.237282 C238.868685,212.053952 238.763243,211.802983 238.7633,211.541 C238.7633,211.0132 238.3979,198.8332 238.7633,193.0883 C238.773463,192.816916 238.894144,192.561487 239.097333,192.381301 C239.300521,192.201114 239.568548,192.11184 239.8392,192.1342 C240.392142,192.177467 240.807968,192.656571 240.773,193.2101 C240.4076,198.8535 240.773,211.3583 240.773,211.4801 C240.784499,212.033032 240.351214,212.493397 239.7986,212.5154 L239.758,212.5154 Z" id="Path" fill="#FFFFFF"></path>
            <path d="M287.7675,207.278 C287.493179,207.277328 287.230338,207.167811 287.0367,206.9735 C278.4092,198.0212 279.8302,188.8456 279.8911,188.4599 C279.994027,187.91886 280.502519,187.553103 281.0482,187.6276 C281.313654,187.667314 281.551792,187.812622 281.708523,188.030517 C281.865255,188.248412 281.927276,188.520399 281.8805,188.7847 C281.491974,195.084548 283.915519,201.232621 288.4983,205.5728 C288.690452,205.763383 288.798535,206.022813 288.798535,206.29345 C288.798535,206.564087 288.690452,206.823517 288.4983,207.0141 C288.301826,207.199586 288.037153,207.295163 287.7675,207.278 Z" id="Path" fill="#FFFFFF"></path>
            <path d="M144.2059,71.065 C143.723502,71.065 143.30768,70.7256512 143.2112,70.253 C142.2774,65.584 148.1644,60.915 148.408,60.712 C148.84584,60.3665378 149.480394,60.4390582 149.829,60.8744 C150.165755,61.3218515 150.094481,61.9544046 149.6666,62.3157 C148.2253,63.4322 144.6322,66.9847 145.2006,69.847 C145.260308,70.111339 145.209579,70.3885958 145.060141,70.6146678 C144.910704,70.8407399 144.675496,70.9960536 144.4089,71.0447 L144.2059,71.065 Z" id="Path" fill="#231F20"></path>
            <rect id="Rectangle" fill="#FFFFFF" transform="translate(259.843144, 148.490805) rotate(9.880000) translate(-259.843144, -148.490805) " x="236.447394" y="136.107805" width="46.7915" height="24.766" rx="3.045"></rect>
            <path d="M278.2874,165.2367 C278.05775,165.256291 277.82685,165.256291 277.5972,165.2367 L277.5972,165.2367 L237.4844,158.2535 C236.430323,158.055006 235.492818,157.459072 234.8657,156.5889 C234.238948,155.706477 233.990487,154.610324 234.1755,153.5439 L237.3829,135.1521 C237.569152,134.093231 238.167792,133.151468 239.0475,132.5334 C239.929923,131.906648 241.026076,131.658187 242.0925,131.8432 L282.185,138.8264 C283.246475,139.020029 284.192026,139.616454 284.824,140.491 C285.44366,141.376391 285.684759,142.472295 285.4939,143.536 L282.2865,161.9278 C281.924629,163.850125 280.243484,165.241123 278.2874,165.2367 Z M277.9423,163.2067 C278.472643,163.301156 279.018782,163.180944 279.46045,162.872538 C279.902119,162.564132 280.203095,162.092823 280.2971,161.5624 L283.5045,143.1706 C283.598554,142.637274 283.475607,142.088476 283.163002,141.646254 C282.850396,141.204032 282.374051,140.90505 281.8399,140.8158 L241.7474,133.8326 C241.217057,133.738144 240.670918,133.858356 240.22925,134.166762 C239.787581,134.475168 239.486605,134.946477 239.3926,135.4769 L236.1852,153.8687 C236.092693,154.401912 236.216924,154.949988 236.5303,155.3912 C236.836944,155.828814 237.303769,156.127874 237.8295,156.2235 L277.9423,163.2067 L277.9423,163.2067 Z" id="Shape" fill="#231F20"></path>
            <path d="M254.896534,130.429119 L270.060634,130.429119 C272.000203,130.429119 273.572534,132.00145 273.572534,133.941019 L273.572534,136.336419 L251.364334,136.336419 L251.364334,133.941019 C251.364334,132.00145 252.936665,130.429119 254.876234,130.429119 L254.896534,130.429119 Z" id="Path" fill="#FFFFFF" transform="translate(262.468434, 133.382769) rotate(9.880000) translate(-262.468434, -133.382769) "></path>
            <path d="M272.8876,139.1918 L272.7252,139.1918 L250.8621,135.3754 C250.600049,135.332216 250.366149,135.186028 250.2125,134.9694 C250.053694,134.745768 249.988169,134.469104 250.0298,134.198 L250.4358,131.8432 C250.879244,129.378606 253.22446,127.730616 255.6935,128.1486 L270.614,130.747 C271.801868,130.960075 272.858743,131.630644 273.5575,132.6146 C274.244391,133.601692 274.514282,134.819852 274.3086,136.0047 L273.9026,138.3595 C273.850224,138.623167 273.697346,138.856123 273.4763,139.0091 C273.305007,139.132099 273.098433,139.196208 272.8876,139.1918 Z M252.2019,133.5484 L272.0756,137.0197 L272.2989,135.6596 C272.426056,135.007724 272.279214,134.332252 271.8929,133.792 C271.510209,133.245267 270.92607,132.872878 270.2689,132.7567 L255.3281,130.1583 C253.972031,129.925118 252.682893,130.832962 252.4455,132.1883 L252.2019,133.5484 Z" id="Shape" fill="#231F20"></path>
            <circle id="Oval" fill="#FFFFFF" cx="259.8347" cy="148.4892" r="10.4342"></circle>
            <path d="M259.855,159.9384 C259.175153,159.936805 258.496453,159.882509 257.825,159.776 C251.608281,158.662074 247.450349,152.746759 248.5073,146.5201 C249.207165,142.487715 252.00512,139.135011 255.8472,137.724919 C259.689281,136.314828 263.991785,137.061576 267.134,139.683869 C270.276216,142.306163 271.780765,146.405615 271.0809,150.438 L271.0809,150.438 C270.136266,155.907137 265.405049,159.911132 259.855,159.9384 Z M259.855,139.0497 C254.931911,139.010291 250.808946,142.76886 250.393929,147.674582 C249.978911,152.580305 253.411858,156.978094 258.2716,157.7663 C263.400807,158.657605 268.281395,155.222107 269.1727,150.0929 C270.064005,144.963693 266.628507,140.083105 261.4993,139.1918 C260.942733,139.098422 260.378611,139.057642 259.8144,139.07 L259.855,139.0497 Z" id="Shape" fill="#231F20"></path>
            <circle id="Oval" fill="#FFFFFF" cx="259.8347" cy="148.4892" r="6.2727"></circle>
            <path d="M259.8347,155.7769 C259.422484,155.807058 259.008616,155.807058 258.5964,155.7769 C256.680184,155.417748 254.986061,154.309849 253.888853,152.698325 C252.791645,151.086801 252.381801,149.104499 252.75,147.19 C253.079701,145.280883 254.162138,143.58409 255.7544,142.4804 C257.325201,141.347952 259.291084,140.907829 261.1948,141.2624 C265.156788,141.953847 267.80965,145.724181 267.1224,149.6869 L267.1224,149.6869 C266.531023,153.238398 263.434766,155.8258 259.8347,155.7769 L259.8347,155.7769 Z M259.8347,143.2112 C257.019245,143.455763 254.896006,145.874584 255.018402,148.697989 C255.140799,151.521394 257.465393,153.7474 260.29145,153.7474 C263.117507,153.7474 265.442101,151.521394 265.564498,148.697989 C265.686894,145.874584 263.563655,143.455763 260.7482,143.2112 C260.447139,143.153958 260.141137,143.126758 259.8347,143.13 L259.8347,143.2112 Z" id="Shape" fill="#231F20"></path>
            <path d="M388.76,387.6638 C388.280355,387.656266 387.868706,387.320226 387.7653,386.8518 L368.9878,294.6086 C368.887064,294.061504 369.236681,293.532596 369.7795,293.4109 C370.043316,293.357005 370.317737,293.410146 370.542363,293.558628 C370.766989,293.70711 370.923411,293.938762 370.9772,294.2026 L389.7547,386.4458 C389.855436,386.992896 389.505819,387.521804 388.963,387.6435 L388.76,387.6638 Z" id="Path" fill="#D1D3D4"></path>
            <path d="M427.4518,387.6638 C426.969402,387.6638 426.55358,387.324451 426.4571,386.8518 L406.5225,294.6289 C406.462035,294.364995 406.509511,294.087871 406.654373,293.859143 C406.799234,293.630414 407.029474,293.46904 407.2939,293.4109 C407.845805,293.309058 408.380912,293.656878 408.5119,294.2026 L428.4465,386.4255 C428.506965,386.689405 428.459489,386.966529 428.314627,387.195257 C428.169766,387.423986 427.939526,387.58536 427.6751,387.6435 L427.4518,387.6638 Z" id="Path" fill="#D1D3D4"></path>
            <path d="M449.2743,350.190068 C448.968862,350.193534 448.678073,350.059324 448.4826,349.8246 C448.140953,349.382302 448.203257,348.750364 448.6247,348.3833 L465.3113,334.8026 C465.748544,334.449442 466.389291,334.517606 466.74245,334.95485 C467.095608,335.392094 467.027444,336.032841 466.5902,336.386 L449.9239,349.9667 C449.735573,350.106338 449.508679,350.184332 449.2743,350.190068 Z" id="Path" fill="#D1D3D4"></path>
        </g>
    </g>
</svg>